<svg xmlns="http://www.w3.org/2000/svg" viewBox="0 0 24 24">
  <!-- Shield shape -->
  <path d="M12 1 L3 5 L3 11 C3 16.5 7 21 12 23 C17 21 21 16.5 21 11 L21 5 Z"
        fill="#1E3A5F"
        stroke="#3B82F6"
        stroke-width="1"/>

  <!-- Inner shield glow -->
  <path d="M12 3 L5 6.5 L5 11 C5 15.5 8 19.5 12 21 C16 19.5 19 15.5 19 11 L19 6.5 Z"
        fill="#0F172A"/>

  <!-- Letter A -->
  <path d="M12 6 L16.5 18 L14.5 18 L13.5 15 L10.5 15 L12 10 L10.5 15 L9.5 18 L7.5 18 Z"
        fill="#EE0000"/>

  <!-- Small checkmark -->
  <path d="M15 13 L16.5 14.5 L19 11"
        fill="none"
        stroke="#4ADE80"
        stroke-width="1.5"
        stroke-linecap="round"
        stroke-linejoin="round"/>
</svg>
